<?xml version="1.0" encoding="utf-8"?>
<!-- Generator: Adobe Illustrator 18.0.0, SVG Export Plug-In . SVG Version: 6.00 Build 0)  -->
<!DOCTYPE svg PUBLIC "-//W3C//DTD SVG 1.1//EN" "http://www.w3.org/Graphics/SVG/1.1/DTD/svg11.dtd">
<svg version="1.1" id="Слой_1" xmlns="http://www.w3.org/2000/svg" xmlns:xlink="http://www.w3.org/1999/xlink" x="0px" y="0px"
	 viewBox="11.5 -190 22 22" enable-background="new 11.5 -189.2 22 20" xml:space="preserve">
<path d="M27.3-182.1c1.2,0,2.4,0,3.6,0c0.3,0,0.5-0.1,0.4-0.4c0-0.3,0-0.6,0-0.9c0-0.3-0.1-0.4-0.4-0.4c-1.7,0-3.5,0-5.2,0
	c-1.2,0-2.3-1-2.3-2.3c0-0.4,0-0.7,0-1.1c0-1.2,0.9-2.1,2.1-2.1c1.9,0,3.8,0,5.7,0c0.9,0,1.6,0.6,1.9,1.4c0.2,0.5,0.1,0.5-0.4,0.5
	c-2.3,0-4.5,0-6.8,0c-0.4,0-0.5,0.1-0.5,0.5c0,1.1,0,1.1,1.1,1.1c1.5,0,3,0,4.5,0c1.5,0,2.4,0.9,2.4,2.4c0,0.4,0,0.9-0.1,1.3
	c-0.1,0.9-0.9,1.7-1.8,1.8c-0.7,0.1-1.5,0-2.2,0c-1.2,0-2.5,0-3.7,0c-1.1,0-1.8-0.6-2.2-1.5c-0.1-0.3,0-0.4,0.3-0.4
	C25-182.1,26.1-182.1,27.3-182.1z"/>
<path d="M17.3-176.5c-1.2,0-2.1,0-3.3,0c-0.3,0-0.4,0.1-0.4,0.4c0,1.6,0,3.1,0,4.7c0,0.3,0.1,0.4,0.4,0.4c1.9,0,3.3,0,5.2,0
	c0.3,0,0.4-0.1,0.4-0.4c0-0.4,0-0.8,0-1.2c0-0.3-0.1-0.4-0.4-0.4c-0.9,0-1.7,0-2.6,0c-0.8,0-1.4-0.5-1.7-1.2c-0.1-0.3,0-0.3,0.2-0.3
	c2,0,4,0,6,0c0.2,0,0.3,0.1,0.3,0.3c0,1,0,2,0,3.1c0,1-0.9,1.9-1.9,1.9c-2,0-3.7,0-5.7,0c-1.4,0-2.2-0.6-2.2-2
	c-0.1-1.7-0.1-3.5,0-5.2c0.1-1,0.9-1.7,1.9-1.8c2.1,0,3.9,0,6,0c0.8,0,1.4,0.5,1.8,1.3c0.1,0.3,0.1,0.4-0.3,0.4
	C19.8-176.5,18.5-176.5,17.3-176.5z"/>
<path d="M28.6-169.2c-0.9,0-1.9,0-2.8,0c-1.1,0-2-0.8-2-1.9c0-1.7,0-3.5,0-5.2c0-1,0.9-1.9,1.9-1.9c2,0,3.9,0,5.9,0
	c1.1,0,1.9,0.9,1.9,2c0,1.6,0,3.3,0,4.9c0,1.2-0.9,2-2.1,2.1C30.5-169.2,29.6-169.2,28.6-169.2z M28.6-170.8c0.9,0,1.7,0,2.6,0
	c0.3,0,0.4-0.1,0.4-0.4c0-1.7,0-3.3,0-5c0-0.3-0.1-0.4-0.4-0.4c-1.7,0-3.3,0-5,0c-0.3,0-0.4,0.1-0.4,0.4c0,1.7,0,3.3,0,5
	c0,0.3,0.1,0.4,0.4,0.4C27-170.8,27.7-170.8,28.6-170.8z"/>
<path d="M17.8-187.2c-1.1,0-2.3,0-3.4,0c-0.4,0-0.4,0.1-0.4,0.5c0,1.3,0,2.7,0,4c0,0.4,0.1,0.5,0.5,0.5c2.2,0,4.4,0,6.6,0
	c0.5,0,0.5,0,0.4,0.5c-0.2,0.8-1,1.5-1.8,1.5c-0.9,0.1-1.9,0-2.8,0c-0.9,0-1.9,0-2.8,0c-1.4,0-2.3-0.9-2.3-2.3c0-1.5,0-2.9,0-4.4
	c0-1.5,1.1-2.4,2.3-2.4c1.8,0.1,3.6,0,5.5,0c0.9,0,1.8,0.7,2,1.5c0.1,0.3,0.1,0.4-0.3,0.4C19.9-187.2,18.8-187.2,17.8-187.2z"/>
</svg>
