<?xml version="1.0" encoding="utf-8"?>
<!-- Generator: Adobe Illustrator 18.0.0, SVG Export Plug-In . SVG Version: 6.00 Build 0)  -->
<!DOCTYPE svg PUBLIC "-//W3C//DTD SVG 1.1//EN" "http://www.w3.org/Graphics/SVG/1.1/DTD/svg11.dtd">
<svg version="1.1" id="Слой_1" xmlns="http://www.w3.org/2000/svg" xmlns:xlink="http://www.w3.org/1999/xlink" x="0px" y="0px"
	 viewBox="0 0 26 20" enable-background="new 0 0 26 20" xml:space="preserve">
<path fill-rule="evenodd" clip-rule="evenodd" d="M2,0h22c1.1,0,2,0.9,2,2v16c0,1.1-0.9,2-2,2H2c-1.1,0-2-0.9-2-2V2C0,0.9,0.9,0,2,0
	z M16.8,17H8.3C4.2,17,1,13.6,1,9.5C1,5.4,4.2,2,8.2,2h8.5c4,0,7.2,3.4,7.2,7.5C24,13.6,20.8,17,16.8,17z M8.5,3C4.9,3,2,5.9,2,9.5
	S4.9,16,8.5,16S15,13.1,15,9.5S12.1,3,8.5,3z M10,14V5c1.7,0.7,3,2.4,3,4.5C13,11.6,11.7,13.4,10,14z M7,14c-1.7-0.7-3-2.4-3-4.5
	C4,7.4,5.3,5.7,7,5V14z"/>
</svg>
