<?xml version="1.0" encoding="utf-8"?>
<!-- Generator: Adobe Illustrator 18.0.0, SVG Export Plug-In . SVG Version: 6.00 Build 0)  -->
<!DOCTYPE svg PUBLIC "-//W3C//DTD SVG 1.1//EN" "http://www.w3.org/Graphics/SVG/1.1/DTD/svg11.dtd">
<svg version="1.1" id="Слой_1" xmlns="http://www.w3.org/2000/svg" xmlns:xlink="http://www.w3.org/1999/xlink" x="0px" y="0px"
	 viewBox="0 0 20 20.1" enable-background="new 0 0 20 20.1" xml:space="preserve">
<g>
	<defs>
		<path id="SVGID_1_" d="M1.5,0.5c0,0-0.8,0-0.9,0c-0.1,0-0.3,0-0.3,0.3c0,0.3-0.1,0.5,0,0.8c0.1,0.2,0.1,0.7,0.1,1.4
			c0,0.7-0.2,1.2-0.3,1.7c-0.1,0.5,0,0.6,0,1c0,0.4,0.1,0.5,0.2,1c0.1,0.5,0.3,1.1,0.3,1.3c0,0.2-0.2,0.4-0.1,0.9
			c0.1,0.5,0.3,0.6,0.3,0.8c0,0.2-0.3,0.6-0.4,0.8c-0.1,0.1-0.2,0.2-0.1,0.8c0,0.7,0,1.4,0,1.4s0.2,0.2,0.4,0.3
			c0.1,0.2,0.1,1,0.1,1.3c0,0.3-0.2,0.8-0.2,0.8s-0.4,0.2-0.3,1c0,0.7,0,1.2,0.1,1.7c0,0.5,0,0.7-0.1,1c0,0.3,0.4,0.4,0.5,0.4
			c0.1,0,0.3-0.1,0.4,0c0.2,0.1,0.2,0.2,0.4,0.2c0.3-0.1,0.5-0.1,0.6-0.1c0.2,0,0.3,0.1,0.4,0.1c0.2,0,0.2-0.1,0.2-0.1l0.3,0
			c0,0-0.1-0.1,0.4,0c0.5,0,0.4,0.1,0.4,0.1s-0.1-0.1,0.5-0.1c0.6,0-0.1,0.1,0.6,0.1c0.6,0,0.8,0,0.9-0.1c0.2-0.1,0.3-0.1,0.4-0.1
			c0.1,0,0.4,0,0.5,0.1c0.1,0,0.3,0.1,0.4,0.2c0.1,0,0.3,0,0.3,0l0.3,0l0.2-0.1c0,0,0.4,0.7,0.6,0.7c0.3,0,0.2-0.3,0.5-0.3
			c0.3-0.1,0.5,0,0.6,0c0.1,0.1,0.3,0.1,0.3,0.1c0.1-0.1,0.2-0.1,0.2-0.1s-0.1,0.1,0.2,0.2c0.3,0.1,0.3,0,0.6-0.1
			c0.3-0.1,1.5-0.2,2-0.1c0.5,0,0.7,0,1.1,0c0.4,0,0.6,0,0.7-0.1c0.2-0.1,0.3-0.2,0.3-0.2s0,0.1,0.4,0.2c0.4,0.1,0.6,0.1,0.6,0.1
			s0,0,0.3,0.1c0.3,0.1,1.2,0,1.2,0l0.4-0.1c0,0-0.3-0.1-0.1-0.2c0.2-0.2,0.6-0.1,0.6-0.1s0.7,0,1,0.2c0.3,0.2,0.5,0.3,0.5,0.3
			l0-8.2c0,0-0.5,0.1-0.5,0c-0.1-0.1,0-0.2,0.2-0.3c0.2-0.1,0.1-1,0.1-1s0.1-0.7,0.1-0.8c0-0.1-0.1-0.5-0.2-0.6
			C19.4,8.6,19,8.1,19,8c0-0.1,0-0.1,0-0.1s0.1-0.2,0.2-0.3c0.1-0.1,0.2-0.3,0.1-0.3c-0.1-0.1-0.1-0.3,0.1-0.3
			c0.2-0.1,0.5-0.2,0.5-0.2s0.1-2.9-0.1-3.8c-0.2-0.9-0.1-1-0.1-1.1c0.1-0.2,0.1-0.2,0.1-0.2s0.1-0.7,0-0.8c-0.2-0.1-0.3,0-0.5-0.2
			c-0.1-0.2-0.6-0.2-0.7-0.2c-0.1,0-0.7,0.1-0.8,0c-0.1-0.1-0.3-0.2-0.4-0.2c-0.1,0.1-0.3,0.6-0.5,0.5c-0.2-0.1-0.1-0.5-0.3-0.5
			c-0.2,0-0.8,0-1.1,0c-0.4,0-1.2,0-1.4,0c-0.3-0.1-0.8-0.1-0.9-0.1c-0.1,0-0.2,0.2-0.3,0.5c-0.1,0.3-0.4,0.3-0.7,0.3
			C12,0.9,12,0.5,12,0.5s-1.3-0.2-1-0.3c0.3-0.1,0.4-0.2,0.3-0.2c-0.1,0-1.1,0.1-1.8,0.1c-0.7,0-1,0-1.3,0c-0.2,0,0.1,0.3-0.4,0.4
			c-0.6,0.1-0.7,0-0.7,0.1c0,0.1-0.7,0.2-1.2,0.2c-0.5,0-0.6-0.1-0.6-0.1S5.2,0.4,4.9,0.4C4.6,0.4,1.5,0.5,1.5,0.5L1.5,0.5z
			 M2.2,3.8c0,0,0.5-0.1,0.8-0.3c0.3-0.2,0.8-0.3,1-0.2C4.2,3.5,4.6,3.8,4.8,4c0.2,0.2,1,0.8,1,0.8L6,5.1c0,0,0.2,0,0.6,0.2
			C7,5.5,9.4,7.1,9.4,7.1l5.4,3.7l0.7,0.5l-0.1,0.1l0.4,0.1l2,1.3c0,0-0.2,1.1-0.6,2.2c-0.4,1.1-0.3,1.3-0.8,1.5
			c-0.4,0.2-2.2-0.1-2.2-0.1l-2.4-2.5l-0.2-0.3l-0.2-0.3l-0.6-0.4l-0.2-0.3L9.9,12l-0.2-0.3l-0.1-0.2l-0.4-0.3L8.9,11L7.2,9.1L6,8
			L5.3,7.1L5.2,7.1l0-0.2L2.2,3.8L2.2,3.8z M11.8,4.4l3.6,2.7l0.4,0l-0.1-0.6l0.1-0.4l0.1-0.5l0.1-0.3L16.2,5l-0.1-0.7l-1.2-0.8
			L14,3.8L13.1,4l-0.7,0C12.4,4.1,11.8,4.4,11.8,4.4L11.8,4.4z M3.8,12l3.9,3.8l-1.2,0.5l-0.5,0.1l-0.4,0.3l-1.5,0.1L3.2,16
			l-0.8-0.6l0.4-1.1L3.8,12L3.8,12z"/>
	</defs>
	<use xlink:href="#SVGID_1_"  overflow="visible" fill-rule="evenodd" clip-rule="evenodd"/>
	<clipPath id="SVGID_2_">
		<use xlink:href="#SVGID_1_"  overflow="visible"/>
	</clipPath>
	<g clip-path="url(#SVGID_2_)">
		<defs>
			<rect id="SVGID_3_" x="0" y="0" width="20" height="20.1"/>
		</defs>
		<use xlink:href="#SVGID_3_"  overflow="visible"/>
		<clipPath id="SVGID_4_">
			<use xlink:href="#SVGID_3_"  overflow="visible"/>
		</clipPath>
	</g>
</g>
</svg>
