<?xml version="1.0" encoding="utf-8"?>
<!-- Generator: Adobe Illustrator 18.0.0, SVG Export Plug-In . SVG Version: 6.00 Build 0)  -->
<!DOCTYPE svg PUBLIC "-//W3C//DTD SVG 1.1//EN" "http://www.w3.org/Graphics/SVG/1.1/DTD/svg11.dtd">
<svg version="1.1" id="Layer_2" xmlns="http://www.w3.org/2000/svg" xmlns:xlink="http://www.w3.org/1999/xlink" x="0px" y="0px"
	 viewBox="25 78 9 16" enable-background="new 25 78 9 16" xml:space="preserve">
<path d="M34,78.3c0-0.2-0.1-0.3-0.3-0.3L32,78c-2.3,0-4,1.5-4,3.9v1.7c0,0.2-0.1,0.3-0.3,0.3h-2.4c-0.2,0-0.3,0.1-0.3,0.3v2.4
	c0,0.2,0.1,0.3,0.3,0.3h2.4c0.2,0,0.3,0.1,0.3,0.3v6.4c0,0.2,0.1,0.3,0.3,0.3h2.4c0.2,0,0.3-0.1,0.3-0.3v-6.4c0-0.2,0.1-0.3,0.3-0.3
	h2.4c0.2,0,0.3-0.1,0.3-0.3v-2.4c0-0.2-0.1-0.3-0.3-0.3h-2.4c-0.2,0-0.3-0.1-0.3-0.3V82c0-0.7,0.2-1,1-1h1.7c0.2,0,0.3-0.1,0.3-0.3
	V78.3z"/>
</svg>
