<?xml version="1.0" encoding="utf-8"?>
<!-- Generator: Adobe Illustrator 18.0.0, SVG Export Plug-In . SVG Version: 6.00 Build 0)  -->
<!DOCTYPE svg PUBLIC "-//W3C//DTD SVG 1.1//EN" "http://www.w3.org/Graphics/SVG/1.1/DTD/svg11.dtd">
<svg version="1.1" id="Слой_1" xmlns="http://www.w3.org/2000/svg" xmlns:xlink="http://www.w3.org/1999/xlink" x="0px" y="0px"
	 viewBox="0 0 22 22" enable-background="new 0 0 22 22" xml:space="preserve">
<path d="M12,16h-2c-0.6,0-1-0.4-1-1v0c0-0.6,0.4-1,1-1h2c0.6,0,1,0.4,1,1v0C13,15.6,12.6,16,12,16z"/>
<path d="M14,12H8c-0.6,0-1-0.4-1-1v0c0-0.6,0.4-1,1-1h6c0.6,0,1,0.4,1,1v0C15,11.6,14.6,12,14,12z"/>
<path d="M16,8H6C5.4,8,5,7.6,5,7v0c0-0.6,0.4-1,1-1h10c0.6,0,1,0.4,1,1v0C17,7.6,16.6,8,16,8z"/>
<path fill="none" stroke="#000000" stroke-width="2" stroke-linecap="round" stroke-linejoin="round" stroke-miterlimit="10" d="
	M18,21H4c-1.7,0-3-1.4-3-3V4c0-1.7,1.3-3,3-3h14c1.6,0,3,1.3,3,3v14C21,19.6,19.6,21,18,21z"/>
</svg>
