<?xml version="1.0" encoding="utf-8"?>
<!-- Generator: Adobe Illustrator 18.0.0, SVG Export Plug-In . SVG Version: 6.00 Build 0)  -->
<!DOCTYPE svg PUBLIC "-//W3C//DTD SVG 1.1//EN" "http://www.w3.org/Graphics/SVG/1.1/DTD/svg11.dtd">
<svg version="1.1" id="Слой_1" xmlns="http://www.w3.org/2000/svg" xmlns:xlink="http://www.w3.org/1999/xlink" x="0px" y="0px"
	 viewBox="0 0 22 22" enable-background="new 0 0 22 22" xml:space="preserve">
<path fill="none" stroke="#000000" stroke-width="2" stroke-miterlimit="10" d="M18,21H4c-1.7,0-3-1.4-3-3V4c0-1.7,1.3-3,3-3h14
	c1.6,0,3,1.3,3,3v14C21,19.6,19.6,21,18,21z"/>
<path fill="none" stroke="#000000" stroke-width="2" stroke-linecap="round" stroke-linejoin="round" stroke-miterlimit="10" d="
	M9,8c0-1.1,0.9-2,2-2s2,0.9,2,2s-0.9,2-2,2v2"/>
<path d="M11,16L11,16c-0.6,0-1-0.4-1-1v0c0-0.6,0.4-1,1-1h0c0.6,0,1,0.4,1,1v0C12,15.6,11.6,16,11,16z"/>
</svg>
