<?xml version="1.0" encoding="utf-8"?>
<!-- Generator: Adobe Illustrator 18.0.0, SVG Export Plug-In . SVG Version: 6.00 Build 0)  -->
<!DOCTYPE svg PUBLIC "-//W3C//DTD SVG 1.1//EN" "http://www.w3.org/Graphics/SVG/1.1/DTD/svg11.dtd">
<svg version="1.1" id="Слой_1" xmlns="http://www.w3.org/2000/svg" xmlns:xlink="http://www.w3.org/1999/xlink" x="0px" y="0px"
	 viewBox="0 0 26.1 20" enable-background="new 0 0 26.1 20" xml:space="preserve">
<path fill-rule="evenodd" clip-rule="evenodd" d="M2,0h22c1.1,0,2,0.9,2,2v16c0,1.1-0.9,2-2,2H2c-1.1,0-2-0.9-2-2V2C0,0.9,0.9,0,2,0
	z M23.5,10.7c-0.1,0-0.3-0.1-0.3-0.2c-0.1-0.1-0.1-0.3-0.1-0.5c0-0.3,0.1-0.6,0.3-0.8C23.6,9,23.8,8.8,24,8.8c0.1,0,0.3,0.1,0.3,0.2
	c0.1,0.1,0.1,0.3,0.1,0.5c0,0.2-0.1,0.4-0.2,0.6c-0.1,0.2-0.2,0.3-0.3,0.4C23.8,10.6,23.6,10.7,23.5,10.7z M25.2,7.3l-0.5,1.4
	c-0.1-0.3-0.4-0.4-0.8-0.4c-0.4,0-0.8,0.2-1.1,0.5c-0.3,0.4-0.5,0.8-0.5,1.2c-0.1,0.4,0,0.7,0.2,0.9c0.2,0.2,0.4,0.3,0.7,0.3
	c0.2,0,0.3,0,0.5-0.1c0.1-0.1,0.3-0.2,0.4-0.3l-0.1,0.3h0.7l1.2-3.5c0.1,0.6,0.2,1.2,0.2,1.8c0,4.1-3.4,7.5-7.5,7.5
	c-2,0-3.8-0.8-5.1-2H15v-1h-2v0.6C11.6,16.1,9.7,17,7.5,17c-3.6,0-6.6-2.5-7.3-5.8h0.2l1-3.2l-0.3,3.2h0.7l1.9-3.2l-1.2,3.2h0.7
	l1.3-3.9H3.5L1.8,10l0.2-2.7H0.9L0,10c0-0.2,0-0.3,0-0.5C0,5.4,3.4,2,7.5,2c2.2,0,4.1,0.9,5.5,2.4V5h2V4h-1.6c1.3-1.2,3.1-2,5.1-2
	c3.4,0,6.2,2.2,7.2,5.3H25.2z M12,13h4v-1h-4V13z M6.4,8.5C6.2,8.4,6,8.3,5.6,8.3C5.3,8.3,5,8.4,4.8,8.5C4.6,8.6,4.4,8.8,4.3,9.1
	L5,9.1C5,9,5.1,9,5.2,8.9c0.1-0.1,0.2-0.1,0.3-0.1c0.1,0,0.2,0,0.3,0.1C5.8,9,5.9,9,5.9,9.1c0,0.1,0,0.1-0.1,0.3
	C5.6,9.4,5.4,9.4,5,9.5c-0.4,0-0.7,0.1-0.9,0.3c-0.2,0.2-0.3,0.4-0.3,0.6c0,0.2,0,0.4,0.1,0.6c0.1,0.2,0.3,0.2,0.5,0.2
	c0.1,0,0.3,0,0.4-0.1c0.2-0.1,0.3-0.2,0.4-0.3c0,0.1,0,0.2,0,0.3h0.7c0-0.1,0-0.3,0-0.4c0-0.1,0.1-0.4,0.2-0.7
	c0.1-0.4,0.2-0.7,0.3-0.7c0-0.1,0-0.2,0.1-0.3C6.6,8.8,6.5,8.7,6.4,8.5z M9,8.5C8.8,8.4,8.5,8.3,8.2,8.3c-0.4,0-0.8,0.1-1.1,0.3
	C6.9,8.8,6.8,9,6.8,9.2c0,0.2,0,0.4,0.2,0.5c0.1,0.1,0.4,0.2,0.8,0.4c0.2,0.1,0.3,0.1,0.3,0.1c0,0,0,0.1,0,0.1
	c0,0.1-0.1,0.1-0.1,0.2c-0.1,0.1-0.3,0.1-0.4,0.1c-0.2,0-0.3,0-0.4-0.1C7.1,10.5,7,10.4,7,10.3l-0.7,0.1c0,0.3,0.2,0.5,0.4,0.6
	c0.2,0.1,0.5,0.2,0.9,0.2c0.4,0,0.7-0.1,1-0.3c0.2-0.2,0.4-0.4,0.4-0.7c0-0.2,0-0.4-0.2-0.5C8.6,9.6,8.4,9.5,8,9.4
	C7.8,9.3,7.7,9.3,7.6,9.2c-0.1,0-0.1-0.1-0.1-0.2c0-0.1,0.1-0.1,0.1-0.2C7.7,8.8,7.8,8.8,8,8.8c0.2,0,0.3,0,0.4,0.1
	C8.5,9,8.5,9,8.5,9.1L9.2,9C9.2,8.8,9.1,8.6,9,8.5z M10.9,7.4L10,7.9L9.8,8.4H9.5L9.3,8.9h0.4L9.3,10c-0.1,0.3-0.2,0.5-0.2,0.6
	c0,0.2,0,0.3,0.1,0.4c0.1,0.1,0.3,0.2,0.6,0.2c0.1,0,0.3,0,0.4,0l0.2-0.6c-0.1,0-0.2,0-0.2,0c-0.1,0-0.2,0-0.2,0c0,0,0-0.1,0-0.1
	c0,0,0-0.2,0.1-0.4l0.4-1.2h0.5L11,8.4h-0.5L10.9,7.4z M10.9,8.9c-0.2,0.3-0.4,0.6-0.4,1c-0.1,0.4,0,0.7,0.2,0.9
	c0.2,0.2,0.5,0.4,0.9,0.4c0.3,0,0.5-0.1,0.8-0.2c0.2-0.1,0.4-0.3,0.6-0.6l-0.7-0.1c-0.2,0.3-0.4,0.4-0.6,0.4c-0.2,0-0.3-0.1-0.4-0.2
	c-0.1-0.1-0.1-0.3-0.1-0.5c0,0,0,0,0-0.1H13c0.1-0.1,0.1-0.3,0.1-0.5c0-0.4,0-0.7-0.2-0.9s-0.4-0.3-0.8-0.3
	C11.7,8.3,11.2,8.5,10.9,8.9z M16,6h-4v1h4V6z M18.2,7.6c-0.2-0.2-0.5-0.3-1-0.3c-0.4,0-0.7,0.1-1.1,0.3c-0.3,0.2-0.6,0.5-0.8,0.8
	c-0.1,0-0.2-0.1-0.3-0.1c-0.3,0-0.6,0.2-0.9,0.6l0.2-0.5h-0.7l-0.9,2.8h0.7l0.3-0.9c0.1-0.4,0.2-0.6,0.3-0.8
	c0.1-0.2,0.2-0.3,0.4-0.4C14.6,9,14.7,9,14.8,9C14.9,9,15,9,15,9c-0.1,0.2-0.1,0.4-0.1,0.6c-0.1,0.5,0,1,0.2,1.2
	c0.2,0.3,0.6,0.4,1,0.4c0.4,0,0.8-0.1,1.1-0.3c0.3-0.2,0.6-0.6,0.8-1l-0.8-0.1c-0.1,0.3-0.3,0.5-0.5,0.6c-0.2,0.1-0.4,0.2-0.6,0.2
	c-0.2,0-0.4-0.1-0.5-0.3c-0.1-0.2-0.2-0.4-0.1-0.7c0-0.3,0.1-0.6,0.3-0.9c0.1-0.3,0.3-0.5,0.5-0.6c0.2-0.1,0.4-0.2,0.6-0.2
	c0.2,0,0.3,0.1,0.5,0.2c0.1,0.1,0.2,0.3,0.2,0.5l0.8-0.1C18.5,8.1,18.4,7.8,18.2,7.6z M20.6,8.5c-0.2-0.1-0.4-0.2-0.8-0.2
	c-0.3,0-0.6,0.1-0.9,0.2c-0.2,0.1-0.4,0.3-0.5,0.6l0.7,0.1c0-0.1,0.1-0.2,0.2-0.2c0.1-0.1,0.2-0.1,0.3-0.1c0.1,0,0.2,0,0.3,0.1
	C20,9,20,9,20,9.1c0,0.1,0,0.1-0.1,0.3c-0.1,0-0.4,0.1-0.7,0.1c-0.4,0-0.7,0.1-0.9,0.3c-0.2,0.2-0.3,0.4-0.3,0.6
	c0,0.2,0,0.4,0.1,0.6c0.1,0.2,0.3,0.2,0.5,0.2c0.1,0,0.3,0,0.4-0.1c0.2-0.1,0.3-0.2,0.4-0.3c0,0.1,0,0.2,0,0.3h0.7
	c0-0.1,0-0.3,0-0.4c0-0.1,0.1-0.4,0.2-0.7c0.1-0.4,0.2-0.7,0.3-0.7c0-0.1,0-0.2,0.1-0.3C20.8,8.8,20.7,8.7,20.6,8.5z M22.8,8.3
	c-0.3,0-0.6,0.2-0.9,0.6L22,8.4h-0.7l-0.9,2.8h0.7l0.3-0.9c0.1-0.4,0.2-0.6,0.3-0.8s0.2-0.3,0.4-0.4C22.3,9,22.4,9,22.5,9
	c0.1,0,0.1,0,0.2,0l0.4-0.6C23,8.3,22.9,8.3,22.8,8.3z M19.6,10.4c-0.1,0.1-0.1,0.2-0.3,0.2s-0.2,0.1-0.3,0.1c-0.1,0-0.2,0-0.2-0.1
	c-0.1-0.1-0.1-0.1-0.1-0.2c0-0.1,0.1-0.2,0.2-0.3c0.1-0.1,0.4-0.2,0.8-0.2c0.1,0,0.1,0,0.2,0l0,0.1C19.7,10.1,19.6,10.3,19.6,10.4z
	 M12.4,9c0.1,0.1,0.1,0.3,0.1,0.5c0,0,0,0,0,0.1h-1.2c0.1-0.2,0.2-0.4,0.3-0.5c0.1-0.1,0.3-0.2,0.4-0.2S12.3,8.9,12.4,9z M5.4,10.4
	c-0.1,0.1-0.1,0.2-0.3,0.2c-0.1,0.1-0.2,0.1-0.3,0.1c-0.1,0-0.2,0-0.2-0.1c-0.1-0.1-0.1-0.1-0.1-0.2c0-0.1,0.1-0.2,0.2-0.3
	C4.8,10,5,9.9,5.4,9.9c0.1,0,0.1,0,0.2,0l0,0.1C5.5,10.1,5.5,10.3,5.4,10.4z"/>
</svg>
