<?xml version="1.0" encoding="utf-8"?>
<!-- Generator: Adobe Illustrator 18.0.0, SVG Export Plug-In . SVG Version: 6.00 Build 0)  -->
<!DOCTYPE svg PUBLIC "-//W3C//DTD SVG 1.1//EN" "http://www.w3.org/Graphics/SVG/1.1/DTD/svg11.dtd">
<svg version="1.1" id="Слой_1" xmlns="http://www.w3.org/2000/svg" xmlns:xlink="http://www.w3.org/1999/xlink" x="0px" y="0px"
	 viewBox="0 0 26 20" enable-background="new 0 0 26 20" xml:space="preserve">
<path fill-rule="evenodd" clip-rule="evenodd" d="M2,0h22c1.1,0,2,0.9,2,2v16c0,1.1-0.9,2-2,2H2c-1.1,0-2-0.9-2-2V2C0,0.9,0.9,0,2,0
	z M9.3,9.1l-0.6,2.8H7.3l0.1-0.4c-0.8,0.8-2.7,0.8-2.4-1c0.2-1,1.3-1.4,2.9-1.4C8,8.7,7.7,8.6,7.1,8.6c-0.5,0-1.2,0.2-1.4,0.3l0.1-1
	c0.4-0.1,0.9-0.3,1.6-0.3C8.5,7.6,9.6,7.9,9.3,9.1z M7.6,10.5C7.5,10.8,7.2,11,6.8,11c-0.3,0-0.6-0.3-0.4-0.6
	c0.2-0.3,0.6-0.3,0.9-0.3c0.1,0,0.2,0,0.4,0C7.6,10.2,7.6,10.3,7.6,10.5z M10,7.7h1.4l0.2,2.6L13,7.7h1.5L11.1,14H9.5l1-1.8L10,7.7
	L10,7.7L10,7.7z M5.3,8.3c-0.2,1.1-1.1,1.8-2.2,1.8H2l-0.4,1.8H0l1.2-5.4h2.7C4.7,6.5,5.6,7.1,5.3,8.3z M3.9,8.3
	C3.8,8.7,3.4,9.1,3,9.1H2.2l0.3-1.5h0.8C3.7,7.6,4,7.9,3.9,8.3z M23.3,9.1l-0.6,2.8h-1.4l0.1-0.4c-0.8,0.8-2.7,0.8-2.4-1
	c0.2-1,1.3-1.4,2.9-1.4c0.1-0.5-0.2-0.6-0.8-0.6c-0.5,0-1.2,0.2-1.4,0.3l0.1-1c0.4-0.1,1-0.3,1.6-0.3C22.5,7.6,23.6,7.9,23.3,9.1z
	 M21.6,10.5c-0.1,0.4-0.4,0.5-0.8,0.6c-0.3,0-0.6-0.3-0.4-0.6c0.2-0.3,0.6-0.3,0.9-0.3c0.1,0,0.2,0,0.4,0
	C21.6,10.2,21.6,10.3,21.6,10.5z M24.6,6.5L24.6,6.5H26l-1.2,5.4h-1.5L24.6,6.5L24.6,6.5z M19.3,8.3c-0.2,1.1-1.1,1.8-2.2,1.8h-1.1
	l-0.4,1.8H14l1.2-5.4h2.7C18.6,6.5,19.6,7.1,19.3,8.3z M17.8,8.3c-0.1,0.4-0.5,0.7-0.9,0.7h-0.7l0.3-1.5h0.8
	C17.7,7.6,17.9,7.9,17.8,8.3z"/>
</svg>
