<?xml version="1.0" encoding="utf-8"?>
<!-- Generator: Adobe Illustrator 18.0.0, SVG Export Plug-In . SVG Version: 6.00 Build 0)  -->
<!DOCTYPE svg PUBLIC "-//W3C//DTD SVG 1.1//EN" "http://www.w3.org/Graphics/SVG/1.1/DTD/svg11.dtd">
<svg version="1.1" id="Слой_1" xmlns="http://www.w3.org/2000/svg" xmlns:xlink="http://www.w3.org/1999/xlink" x="0px" y="0px"
	 viewBox="0 0 26 20" enable-background="new 0 0 26 20" xml:space="preserve">
<path d="M24,20H2c-1.1,0-2-0.9-2-2V2c0-1.1,0.9-2,2-2h22c1.1,0,2,0.9,2,2v16C26,19.1,25.1,20,24,20z M17.5,12.7
	C17.5,12.6,17.5,12.6,17.5,12.7c0.1-0.1,0.1-0.1,0.1-0.1c0,0,0.1-0.1,0.1-0.2c0.1-0.1,0.1-0.2,0.2-0.3c0.1-0.2,0.3-0.5,0.4-0.7
	c0.2-0.5,0.4-1,0.5-1.6c0.2-1.3,0-2.6-0.5-3.5c-0.5-0.9-1.1-1.7-2-2.2c-0.9-0.6-1.8-1-3.2-1c0,0,0,0,0,0c-0.7,0-1.3,0.1-1.9,0.2
	c-0.3,0.1-0.5,0.2-0.8,0.3c-0.3,0.1-0.5,0.2-0.7,0.3C9.5,4,9.4,4,9.3,4.1C9.2,4.1,9.1,4.2,9,4.3C8.8,4.5,8.6,4.6,8.4,4.8
	C8.2,5,8,5.2,7.8,5.3c0,0.1-0.1,0.1-0.1,0.2c0,0.1-0.1,0.1-0.1,0.2c0,0.1-0.1,0.1-0.1,0.2C7.4,5.8,7.4,5.9,7.4,6
	C7.3,6.1,7.2,6.2,7.2,6.3C7.1,6.4,7.1,6.5,7,6.6C6.9,6.9,6.8,7.1,6.7,7.4C6.6,7.7,6.5,7.9,6.4,8.2c-0.1,0.3-0.1,0.7-0.1,1
	c0,0.1,0,0.3,0,0.4c0,0,0,0,0,0c0,0.1,0,0.3,0,0.4c0,0.3,0.1,0.6,0.2,0.9c0.1,0.3,0.2,0.5,0.3,0.8C7,12,7,12.3,7.2,12.5
	c0.1,0.2,0.3,0.4,0.5,0.6c0.2,0.2,0.3,0.4,0.6,0.5c0.4,0.3,0.8,0.6,1.3,0.8c0.9,0.4,2.3,0.7,3.5,0.7c0.3,0,0.6-0.1,0.9-0.2
	c0.3-0.1,0.6-0.2,0.9-0.2c0.7,0,1.4,0,1.9,0.2c0.6,0.2,1.1,0.4,1.5,0.7c0.2,0.1,0.4,0.3,0.6,0.5c0.2,0.2,0.4,0.4,0.5,0.6
	c0,0.1,0.1,0.1,0.1,0.2c0,0,0,0.2,0.1,0.2c0.1-0.1,0-0.2,0-0.3c0-0.1-0.1-0.2-0.1-0.2c-0.1-0.2-0.2-0.3-0.3-0.4
	c-0.2-0.3-0.4-0.5-0.7-0.7c-0.1,0-0.1-0.1-0.2-0.1c-0.1-0.1-0.1-0.1-0.2-0.2c-0.1-0.1-0.3-0.2-0.4-0.3c-0.3-0.2-0.6-0.3-1-0.4
	c-0.4-0.1-0.8-0.2-1.2-0.2c-0.4-0.1-0.8-0.1-1.1-0.3c-0.2-0.1-0.3-0.1-0.5-0.2c-0.1-0.1-0.3-0.2-0.4-0.3c-0.1-0.1-0.2-0.2-0.3-0.3
	c0-0.1-0.1-0.1-0.1-0.2c0,0,0-0.1-0.1-0.1c0,0,0-0.1-0.1-0.1c0,0.2,0,0.4,0,0.5c0,0.1,0,0.2,0,0.2c0,0.1,0.1,0.2,0,0.2
	c-1.2-0.1-2.1-0.4-2.9-1c-0.4-0.3-0.7-0.6-1-0.9c-0.1-0.2-0.3-0.4-0.4-0.6c-0.1-0.2-0.2-0.4-0.3-0.6c-0.2-0.5-0.3-0.9-0.4-1.5
	C8.1,8.5,8.1,7.9,8.2,7.4c0-0.3,0.1-0.5,0.2-0.7c0.1-0.1,0.1-0.2,0.2-0.3C8.6,6.2,8.7,6.1,8.7,6C9,5.6,9.3,5.3,9.6,5
	c0.4-0.3,0.8-0.5,1.3-0.6c0.5-0.1,1.1-0.1,1.7,0c1.1,0.2,1.9,0.7,2.5,1.3c0.7,0.6,1.2,1.3,1.6,2.3c0.4,0.9,0.5,2.2,0.2,3.2
	c-0.1-0.1-0.3-0.2-0.4-0.2c-0.2,0-0.3-0.1-0.5-0.1c-0.2,0-0.5,0-0.6,0.1c0.3,0,0.5,0.1,0.7,0.1c0.1,0,0.2,0.1,0.3,0.1
	c0.2,0.1,0.3,0.2,0.4,0.3C17.1,11.7,17.3,12.1,17.5,12.7C17.4,12.7,17.5,12.7,17.5,12.7z M16.2,12.8c0-0.1-0.1-0.3-0.2-0.4
	c-0.1,0-0.1-0.1-0.2,0c0,0,0,0,0,0c0,0.1,0,0.2,0,0.2c0.1,0.2,0.1,0.4,0.3,0.5C16.2,13,16.2,12.9,16.2,12.8z M14.5,12.9
	c-0.1,0.3,0.1,0.7,0.4,0.7c0.1,0,0.2-0.1,0.3-0.3c0-0.3-0.1-0.5-0.4-0.5c0,0,0,0,0,0C14.6,12.8,14.6,12.9,14.5,12.9z"/>
</svg>
