<?xml version="1.0" encoding="utf-8"?>
<!-- Generator: Adobe Illustrator 18.0.0, SVG Export Plug-In . SVG Version: 6.00 Build 0)  -->
<!DOCTYPE svg PUBLIC "-//W3C//DTD SVG 1.1//EN" "http://www.w3.org/Graphics/SVG/1.1/DTD/svg11.dtd">
<svg version="1.1" id="Слой_1" xmlns="http://www.w3.org/2000/svg" xmlns:xlink="http://www.w3.org/1999/xlink" x="0px" y="0px"
	 viewBox="0 0 22 22" enable-background="new 0 0 22 22" xml:space="preserve">
<circle fill="none" stroke="#000000" stroke-width="2" stroke-linecap="round" stroke-linejoin="round" stroke-miterlimit="10" cx="11" cy="11" r="3"/>
<path fill="none" stroke="#000000" stroke-width="2" stroke-linecap="round" stroke-linejoin="round" stroke-miterlimit="10" d="
	M12.2,1.8L12.2,1.8c0.6-1.3,2.6-0.8,2.4,0.7l0,0c-0.1,1.1,1.1,1.8,2,1.2l0,0c1.2-0.8,2.6,0.6,1.8,1.8l0,0c-0.6,0.9,0.1,2.1,1.2,2
	l0,0c1.4-0.1,2,1.8,0.7,2.4l0,0c-1,0.5-1,1.9,0,2.3l0,0c1.3,0.6,0.8,2.6-0.7,2.4l0,0c-1.1-0.1-1.8,1.1-1.2,2l0,0
	c0.8,1.2-0.6,2.6-1.8,1.8l0,0c-0.9-0.6-2.1,0.1-2,1.2l0,0c0.1,1.4-1.8,2-2.4,0.7l0,0c-0.5-1-1.9-1-2.3,0l0,0
	c-0.6,1.3-2.6,0.8-2.4-0.7l0,0c0.1-1.1-1.1-1.8-2-1.2l0,0c-1.2,0.8-2.6-0.6-1.8-1.8l0,0c0.6-0.9-0.1-2.1-1.2-2l0,0
	c-1.4,0.1-2-1.8-0.7-2.4l0,0c1-0.5,1-1.9,0-2.3l0,0C0.4,9.2,1,7.3,2.4,7.4l0,0c1.1,0.1,1.8-1.1,1.2-2l0,0C2.7,4.2,4.2,2.7,5.4,3.6
	l0,0c0.9,0.6,2.1-0.1,2-1.2l0,0C7.3,1,9.2,0.4,9.8,1.8l0,0C10.3,2.8,11.7,2.8,12.2,1.8z"/>
</svg>
