<?xml version="1.0" encoding="utf-8"?>
<!-- Generator: Adobe Illustrator 18.0.0, SVG Export Plug-In . SVG Version: 6.00 Build 0)  -->
<!DOCTYPE svg PUBLIC "-//W3C//DTD SVG 1.1//EN" "http://www.w3.org/Graphics/SVG/1.1/DTD/svg11.dtd">
<svg version="1.1" id="Слой_1" xmlns="http://www.w3.org/2000/svg" xmlns:xlink="http://www.w3.org/1999/xlink" x="0px" y="0px"
	 viewBox="0 0 26 20" enable-background="new 0 0 26 20" xml:space="preserve">
<path fill-rule="evenodd" clip-rule="evenodd" d="M2,0h22c1.1,0,2,0.9,2,2v16c0,1.1-0.9,2-2,2H2c-1.1,0-2-0.9-2-2V2C0,0.9,0.9,0,2,0
	z M13.5,17.1C9.4,17.1,6,13.7,6,9.5S9.4,2,13.5,2C17.6,2,21,5.4,21,9.5S17.6,17.1,13.5,17.1z M13.5,3C9.9,3,7,5.9,7,9.5
	c0,3.6,2.9,6.5,6.5,6.5c3.6,0,6.5-2.9,6.5-6.5C20,5.9,17.1,3,13.5,3z M15.1,6.5c-1.3,0-2.4,1.1-2.4,2.5c0,0.7,0.3,1.4,0.8,1.8
	l-1.1,1.1c-0.8-0.7-1.3-1.7-1.3-2.9c0-2.2,1.8-3.9,4-3.9c1.1,0,2.1,0.4,2.9,1.2l-1.1,1.1C16.5,6.8,15.8,6.5,15.1,6.5z M14.3,10.1
	c0-0.7-0.3-1.4-0.8-1.8l1.1-1.1c0.8,0.7,1.3,1.7,1.3,2.9c0,2.2-1.8,3.9-4,3.9c-1.1,0-2.1-0.4-2.9-1.2l1.1-1.1
	c0.4,0.5,1.1,0.8,1.8,0.8C13.2,12.5,14.3,11.4,14.3,10.1z"/>
</svg>
