<?xml version="1.0" encoding="utf-8"?>
<!-- Generator: Adobe Illustrator 18.0.0, SVG Export Plug-In . SVG Version: 6.00 Build 0)  -->
<!DOCTYPE svg PUBLIC "-//W3C//DTD SVG 1.1//EN" "http://www.w3.org/Graphics/SVG/1.1/DTD/svg11.dtd">
<svg version="1.1" id="svg3428" xmlns="http://www.w3.org/2000/svg" xmlns:xlink="http://www.w3.org/1999/xlink" x="0px" y="0px"
	 viewBox="349.7 358.6 20 20" enable-background="new 349.7 358.6 20 20" xml:space="preserve">
<path d="M361.1,358.7c-4.7-0.7-9.1,2.1-10.8,6.4l7.2,1c0.7-0.6,1.7-0.9,2.6-0.8L361.1,358.7z"/>
<path d="M363.2,359.3l-1,7.2c0.6,0.7,0.9,1.7,0.8,2.6l6.6,0.9C370.2,365.3,367.5,360.9,363.2,359.3z"/>
<path d="M349.8,367.2c-0.7,4.7,2.1,9.1,6.4,10.8l1-7.2c-0.6-0.7-0.9-1.7-0.8-2.6L349.8,367.2z"/>
<path d="M361.8,371.1c-0.7,0.6-1.7,0.9-2.6,0.8l-0.9,6.6c4.7,0.7,9.1-2.1,10.8-6.4L361.8,371.1z"/>
<g id="layer1">
</g>
</svg>
