<?xml version="1.0" encoding="utf-8"?>
<!-- Generator: Adobe Illustrator 18.0.0, SVG Export Plug-In . SVG Version: 6.00 Build 0)  -->
<!DOCTYPE svg PUBLIC "-//W3C//DTD SVG 1.1//EN" "http://www.w3.org/Graphics/SVG/1.1/DTD/svg11.dtd">
<svg version="1.1" id="Слой_1" xmlns="http://www.w3.org/2000/svg" xmlns:xlink="http://www.w3.org/1999/xlink" x="0px" y="0px"
	 viewBox="0 0 26 20" enable-background="new 0 0 26 20" xml:space="preserve">
<path fill-rule="evenodd" clip-rule="evenodd" d="M2,0h22c1.1,0,2,0.9,2,2v16c0,1.1-0.9,2-2,2H2c-1.1,0-2-0.9-2-2V2C0,0.9,0.9,0,2,0
	z M23.2,14l-0.2-1.2h-2.6L19.9,14h-2.1l3-7.4c0,0,0.2-0.6,0.9-0.6h1.6l1.6,8H23.2z M22,8.2l-1.1,3h1.7L22,8.2z M15.2,8.3
	c0,0.9,2.8,1.1,2.8,3.1c0,1.9-2.1,2.7-3.4,2.7c-1.4,0-2.3-0.4-2.3-0.4l0.3-1.7c0.8,0.7,3.3,0.9,3.3-0.2s-2.8-1.1-2.8-3.1
	c0-2.1,2.4-2.6,3.4-2.6c0.9,0,1.8,0.3,1.8,0.3L18,8C17.1,7.5,15.2,7.4,15.2,8.3z M9,14l1.3-8h2L11,14H9z M4.2,14l-1.7-7
	C2.7,7.2,3,7.4,3.3,7.7c1.4,1.2,1.9,2.6,1.9,2.6l0,0l0.2,1.2L7.3,6h2.2l-3.2,8H4.2z M0.5,6.2C0.6,6.2,0.6,6.2,0.5,6.2
	C0.6,6.2,0.6,6.2,0.5,6.2z M0.4,6.2C0.4,6.1,0.4,6.1,0.4,6.2C0.4,6.1,0.4,6.1,0.4,6.2z M0.9,6.3c0,0-0.1,0-0.1,0
	C0.8,6.3,0.9,6.3,0.9,6.3z M2.3,7c-0.1,0-0.1-0.1-0.2-0.1C2.2,6.9,2.2,6.9,2.3,7z M1.7,6.6c0.1,0,0.1,0.1,0.2,0.1
	C1.8,6.7,1.7,6.7,1.7,6.6z M1.2,6.4c0,0,0.1,0,0.1,0C1.3,6.5,1.3,6.4,1.2,6.4z M3.3,7.7c-1.5-1.2-3-1.6-3-1.6l0-0.1h3.2
	c0.9,0,1,0.7,1,0.7l0.7,3.6C5.2,10.3,4.7,8.9,3.3,7.7z"/>
</svg>
