<?xml version="1.0" encoding="utf-8"?>
<!-- Generator: Adobe Illustrator 18.0.0, SVG Export Plug-In . SVG Version: 6.00 Build 0)  -->
<!DOCTYPE svg PUBLIC "-//W3C//DTD SVG 1.1//EN" "http://www.w3.org/Graphics/SVG/1.1/DTD/svg11.dtd">
<svg version="1.1" id="Layer_1" xmlns="http://www.w3.org/2000/svg" xmlns:xlink="http://www.w3.org/1999/xlink" x="0px" y="0px"
	 viewBox="3 6 13 16" enable-background="new 3 6 13 16" xml:space="preserve">
<g>
	<g>
		<path d="M15,14.5c-0.6-0.6-1.5-1.3-2.5-1.5c0.7-0.3,2.5-0.8,2.5-3c0-2.2-1.8-4-4-4c0,0-0.8,0-2,0H3v16h6.5c1.1,0,1.8-0.1,2.5-0.3
			c0.7-0.2,1.4-0.5,2-1c0.5-0.4,1.2-1,1.5-1.6c0.3-0.6,0.5-1.3,0.5-2.1C16,15.9,15.6,15.1,15,14.5z M7,9c0,0,1.6,0,2,0
			c1.2,0,2,0.9,2,1.5S10.1,12,9,12c-0.3,0-2,0-2,0V9z M11.7,18c-0.2,0.3-0.6,0.6-1,0.7C10.3,18.9,9.4,19,9,19c-0.4,0-2,0-2,0v-4
			c0,0,1.6,0,2,0c0.4,0,1.3,0.1,1.5,0.2c0.4,0.1,0.8,0.4,1,0.6c0.2,0.3,0.4,0.7,0.4,1.2C12,17.4,11.9,17.7,11.7,18z"/>
	</g>
</g>
</svg>
