<?xml version="1.0" encoding="utf-8"?>
<!-- Generator: Adobe Illustrator 18.0.0, SVG Export Plug-In . SVG Version: 6.00 Build 0)  -->
<!DOCTYPE svg PUBLIC "-//W3C//DTD SVG 1.1//EN" "http://www.w3.org/Graphics/SVG/1.1/DTD/svg11.dtd">
<svg version="1.1" id="Слой_1" xmlns="http://www.w3.org/2000/svg" xmlns:xlink="http://www.w3.org/1999/xlink" x="0px" y="0px"
	 viewBox="0 0 26 20" enable-background="new 0 0 26 20" xml:space="preserve">
<path d="M24,20H2c-1.1,0-2-0.9-2-2V2c0-1.1,0.9-2,2-2h22c1.1,0,2,0.9,2,2v16C26,19.1,25.1,20,24,20z M13,3c-3.8,0-7,3.1-7,7
	c0,3.8,3.1,7,7,7c1.2,0,2.4-0.3,3.4-0.9c0.3-0.2,0.6-0.4,0.9-0.6l-1.4-1.6l-1.6,1.5l-2.7-3l0.8-0.7l-1.9-2.1l0.8-0.7L9.2,6.7l3-2.7
	l1,1.1l1.6-1.5l1,1L16.5,4c-0.1-0.1-0.3-0.2-0.4-0.2C15.1,3.3,14.1,3,13,3L13,3z M11.7,9.6l1.5,1.7l1.7-1.5l-1.5-1.7L11.7,9.6
	L11.7,9.6z M12.9,12.4l1.5,1.7l1.7-1.5l-1.5-1.7L12.9,12.4L12.9,12.4z M10.5,6.7L12,8.4l1.7-1.5l-1.5-1.7L10.5,6.7L10.5,6.7z
	 M13.6,5.9l1.1,1.2L15.9,6l-1.1-1.2L13.6,5.9L13.6,5.9z M15.8,11.1l1.1,1.2l1.2-1.1L17,9.9L15.8,11.1L15.8,11.1z M16.9,13.6l1.1,1.2
	l1.2-1.1l-1.1-1.2L16.9,13.6L16.9,13.6z M17.4,7.8l0.7,0.8l0.8-0.7l-0.7-0.8L17.4,7.8L17.4,7.8z M16.3,5.3l0.7,0.8l0.8-0.7l-0.7-0.8
	L16.3,5.3L16.3,5.3z M18.4,10.3l0.7,0.8l0.8-0.7l-0.7-0.8L18.4,10.3L18.4,10.3z M14.7,8.4l1.1,1.2l1.2-1.1l-1.1-1.2L14.7,8.4
	L14.7,8.4z"/>
</svg>
