<?xml version="1.0" encoding="utf-8"?>
<!-- Generator: Adobe Illustrator 18.0.0, SVG Export Plug-In . SVG Version: 6.00 Build 0)  -->
<!DOCTYPE svg PUBLIC "-//W3C//DTD SVG 1.1//EN" "http://www.w3.org/Graphics/SVG/1.1/DTD/svg11.dtd">
<svg version="1.1" id="Слой_1" xmlns="http://www.w3.org/2000/svg" xmlns:xlink="http://www.w3.org/1999/xlink" x="0px" y="0px"
	 viewBox="0 0 26 20" enable-background="new 0 0 26 20" xml:space="preserve">
<path d="M24,20H2c-1.1,0-2-0.9-2-2V2c0-1.1,0.9-2,2-2h22c1.1,0,2,0.9,2,2v16C26,19.1,25.1,20,24,20z M18,7.8h-0.7v4.6
	c0,0.8-0.4,1.3-1.4,1.5l-6.7,1.9c0,0-0.6,0.2-0.6-0.4c0-0.4,0.5-0.5,0.6-0.6l0,0l6.1-2.4c0.5-0.3,0.9-0.9,0.9-1.4V3.8
	c0-1.1-1.1-0.8-1.4-0.6c-0.3,0.2-7.1,4-7.1,4C7.3,7.4,6.9,8.1,6.9,8.6v7.2c0,0.5,0.7,1.2,1.2,1.2v0h10c0.6,0,1.1-0.4,1.1-0.9V8.7
	C19.1,8.2,18.6,7.8,18,7.8 M13.2,7.2c0.5-0.3,0.9-0.2,1,0.2c0.1,0.4-0.2,1-0.7,1.3c-0.5,0.3-0.9,0.2-1-0.2
	C12.5,8.1,12.7,7.5,13.2,7.2z"/>
</svg>
